# xmcd
#
# Track frame offsets: 
#        150
#        20850
#        45687
#        66025
#        87787
#        105062
#        125512
#        153575
#        169112
#        187100
#        200925
#        222287
#        249300
#
# Disc length: 3720 seconds
#
# Revision: 0
# Processed by: cddbd v1.5.2PL0 Copyright (c) Steve Scherf et al.
# Submitted via: ExactAudioCopy v0.99pb5
#
DISCID=b60e860d
DTITLE=Santana - The Best Instumentals
DYEAR=1995
DGENRE=Instrumental
TTITLE0=Samba Pa Ti
TTITLE1=Aqua Marine
TTITLE2=Bella
TTITLE3=Flor D'luna
TTITLE4=Life Is A Lady\\Holiday
TTITLE5=Full Moon
TTITLE6=Song Of The Wind
TTITLE7=Tales Of Kilimanjaro
TTITLE8=Love Is You
TTITLE9=Guru's Song
TTITLE10=Treat
TTITLE11=Blues For Salvador
TTITLE12=Soul Sacrifice
EXTD=
EXTT0=
EXTT1=
EXTT2=
EXTT3=
EXTT4=
EXTT5=
EXTT6=
EXTT7=
EXTT8=
EXTT9=
EXTT10=
EXTT11=
EXTT12=
PLAYORDER=
